<svg xmlns="http://www.w3.org/2000/svg" xmlns:xlink="http://www.w3.org/1999/xlink" width="375" height="747" viewBox="0 0 375 747">
  <defs>
    <clipPath id="clip-iPhone_X_XS_11_Pro_1">
      <rect width="375" height="747"/>
    </clipPath>
  </defs>
  <g id="iPhone_X_XS_11_Pro_1" data-name="iPhone X, XS, 11 Pro – 1" clip-path="url(#clip-iPhone_X_XS_11_Pro_1)">
    <rect width="375" height="747" fill="#fff"/>
    <g id="Rectangle_1" data-name="Rectangle 1" fill="#25364f" stroke="#707070" stroke-linejoin="bevel" stroke-width="1">
      <path d="M0,0H375a0,0,0,0,1,0,0V508a37,37,0,0,1-37,37H0a0,0,0,0,1,0,0V0A0,0,0,0,1,0,0Z" stroke="none"/>
      <path d="M1,.5H374a.5.5,0,0,1,.5.5V508A36.5,36.5,0,0,1,338,544.5H1a.5.5,0,0,1-.5-.5V1A.5.5,0,0,1,1,.5Z" fill="none"/>
    </g>
    <g id="Intersection_1" data-name="Intersection 1" transform="translate(-144 12)" fill="#ff4d5e" stroke-linejoin="bevel">
      <path d="M 299.9996948242188 605.4996948242188 C 272.051513671875 605.4996948242188 244.3810577392578 601.6143798828125 217.7570037841797 593.9515991210938 C 192.0466613769531 586.5518188476562 167.3997497558594 575.66162109375 144.5 561.5842895507812 L 144.5 387.83544921875 C 199.7870483398438 477.8348388671875 295.1631469726562 531.5 399.9996032714844 531.5 C 441.1524353027344 531.5 481.0152587890625 523.2548217773438 518.5003051757812 506.9896850585938 L 518.5003051757812 509.8894958496094 C 504.8749084472656 524.5625610351562 489.751220703125 537.9110107421875 473.5448913574219 549.5679321289062 C 457.1442565917969 561.36474609375 439.5212097167969 571.5097045898438 421.1654052734375 579.7210083007812 C 402.4697875976562 588.0843505859375 382.8536987304688 594.5118408203125 362.8619995117188 598.8248901367188 C 342.3327026367188 603.2540283203125 321.1827392578125 605.4996948242188 299.9996948242188 605.4996948242188 Z" stroke="none"/>
      <path d="M 299.9996948242188 604.9996948242188 C 321.1473388671875 604.9996948242188 342.2618408203125 602.7577514648438 362.7565612792969 598.336181640625 C 382.7144165039062 594.0303955078125 402.2972412109375 587.6138305664062 420.9612121582031 579.2645874023438 C 439.2861938476562 571.0670776367188 456.8796997070312 560.9390869140625 473.2529602050781 549.1620483398438 C 489.37890625 537.5629272460938 504.4325561523438 524.2847290039062 518.0003051757812 509.6930541992188 L 518.0003051757812 507.7505798339844 C 480.6556396484375 523.8431396484375 440.9656677246094 532 399.9996032714844 532 C 295.5743408203125 532 200.5145416259766 478.83544921875 145 389.5951538085938 L 145 561.3046264648438 C 167.7946929931641 575.2882690429688 192.3164520263672 586.109130859375 217.8953094482422 593.4711303710938 C 244.4743957519531 601.1209106445312 272.0982971191406 604.9996948242188 299.9996948242188 604.9996948242188 M 299.9996948242188 605.9996948242188 C 242.8632965087891 605.9996948242188 189.4533996582031 589.8646850585938 144 561.8637084960938 L 144 386.0568237304688 C 199.0530090332031 476.8155212402344 294.7536010742188 531 399.9996032714844 531 C 441.3384094238281 531 481.3758544921875 522.6651000976562 519.0003051757812 506.2266235351562 L 519.0003051757812 510.0857543945312 C 464.2601623535156 569.1116333007812 386.3919982910156 605.9996948242188 299.9996948242188 605.9996948242188 Z" stroke="none" fill="#707070"/>
    </g>
    <g id="Intersection_2" data-name="Intersection 2" transform="translate(375 564) rotate(180)" fill="#ff4d5e" stroke-linejoin="bevel" opacity="0.4">
      <path d="M 0.5000025629997253 218.1642303466797 L 0.5000025629997253 44.41537857055664 C 23.39974212646484 30.33806228637695 48.04666137695312 19.44790267944336 73.75700378417969 12.04813575744629 C 100.381103515625 4.385335445404053 128.0514984130859 0.499985545873642 155.9997100830078 0.499985545873642 C 177.1827545166016 0.499985545873642 198.3327026367188 2.745735645294189 218.8619995117188 7.174785614013672 C 238.8536987304688 11.48788547515869 258.4697875976562 17.91533470153809 277.1654052734375 26.27868461608887 C 295.5212097167969 34.49003601074219 313.1441955566406 44.63498687744141 329.5448913574219 56.43173599243164 C 345.751220703125 68.08870697021484 360.8749084472656 81.43712615966797 374.5003051757812 96.11019134521484 L 374.5003051757812 99.01002502441406 C 337.0152587890625 82.74485015869141 297.1524353027344 74.49968719482422 255.9996032714844 74.49968719482422 C 151.1631317138672 74.49968719482422 55.78704071044922 128.1648559570312 0.5000025629997253 218.1642303466797 Z" stroke="none"/>
      <path d="M 155.9997100830078 0.9999847412109375 C 128.0982971191406 0.9999847412109375 100.474365234375 4.8787841796875 73.89529418945312 12.52857971191406 C 48.31640625 19.89056396484375 23.79464721679688 30.71141052246094 1 44.695068359375 L 1 216.404541015625 C 56.51455688476562 127.1642379760742 151.5743255615234 73.99967956542969 255.9996032714844 73.99967956542969 C 296.9656372070312 73.99967956542969 336.6556091308594 82.15658569335938 374.0003051757812 98.24912261962891 L 374.0003051757812 96.30663299560547 C 360.4325561523438 81.71498107910156 345.37890625 68.43678283691406 329.2529602050781 56.83763122558594 C 312.8796997070312 45.06059265136719 295.2861938476562 34.93263244628906 276.9612121582031 26.73509216308594 C 258.2972412109375 18.38587951660156 238.7144012451172 11.96928405761719 218.7565460205078 7.663528442382812 C 198.2618560791016 3.241928100585938 177.1473541259766 0.9999847412109375 155.9997100830078 0.9999847412109375 M 155.9997100830078 -1.52587890625e-05 C 242.3919982910156 -1.52587890625e-05 320.2601623535156 36.88803100585938 375.0003051757812 95.91393280029297 L 375.0003051757812 99.77308654785156 C 337.3757934570312 83.33457946777344 297.3384094238281 74.99967956542969 255.9996032714844 74.99967956542969 C 150.7536010742188 74.99967956542969 55.05300903320312 129.1841888427734 0 219.9428863525391 L 0 44.135986328125 C 45.45333862304688 16.13497924804688 98.86331176757812 -1.52587890625e-05 155.9997100830078 -1.52587890625e-05 Z" stroke="none" fill="#707070"/>
    </g>
    <g id="Intersection_3" data-name="Intersection 3" transform="translate(375 533) rotate(180)" fill="#ff4d5e" stroke-linejoin="bevel" opacity="0.15">
      <path d="M 0.5000025629997253 218.1642303466797 L 0.5000025629997253 44.41537857055664 C 23.39974212646484 30.33806228637695 48.04666137695312 19.44790267944336 73.75700378417969 12.04813575744629 C 100.381103515625 4.385335445404053 128.0514984130859 0.499985545873642 155.9997100830078 0.499985545873642 C 177.1827545166016 0.499985545873642 198.3327026367188 2.745735645294189 218.8619995117188 7.174785614013672 C 238.8536987304688 11.48788547515869 258.4697875976562 17.91533470153809 277.1654052734375 26.27868461608887 C 295.5212097167969 34.49003601074219 313.1441955566406 44.63498687744141 329.5448913574219 56.43173599243164 C 345.751220703125 68.08870697021484 360.8749084472656 81.43712615966797 374.5003051757812 96.11019134521484 L 374.5003051757812 99.01002502441406 C 337.0152587890625 82.74485015869141 297.1524353027344 74.49968719482422 255.9996032714844 74.49968719482422 C 151.1631317138672 74.49968719482422 55.78704071044922 128.1648559570312 0.5000025629997253 218.1642303466797 Z" stroke="none"/>
      <path d="M 155.9997100830078 0.9999847412109375 C 128.0982971191406 0.9999847412109375 100.474365234375 4.8787841796875 73.89529418945312 12.52857971191406 C 48.31640625 19.89056396484375 23.79464721679688 30.71141052246094 1 44.695068359375 L 1 216.404541015625 C 56.51455688476562 127.1642379760742 151.5743255615234 73.99967956542969 255.9996032714844 73.99967956542969 C 296.9656372070312 73.99967956542969 336.6556091308594 82.15658569335938 374.0003051757812 98.24912261962891 L 374.0003051757812 96.30663299560547 C 360.4325561523438 81.71498107910156 345.37890625 68.43678283691406 329.2529602050781 56.83763122558594 C 312.8796997070312 45.06059265136719 295.2861938476562 34.93263244628906 276.9612121582031 26.73509216308594 C 258.2972412109375 18.38587951660156 238.7144012451172 11.96928405761719 218.7565460205078 7.663528442382812 C 198.2618560791016 3.241928100585938 177.1473541259766 0.9999847412109375 155.9997100830078 0.9999847412109375 M 155.9997100830078 -1.52587890625e-05 C 242.3919982910156 -1.52587890625e-05 320.2601623535156 36.88803100585938 375.0003051757812 95.91393280029297 L 375.0003051757812 99.77308654785156 C 337.3757934570312 83.33457946777344 297.3384094238281 74.99967956542969 255.9996032714844 74.99967956542969 C 150.7536010742188 74.99967956542969 55.05300903320312 129.1841888427734 0 219.9428863525391 L 0 44.135986328125 C 45.45333862304688 16.13497924804688 98.86331176757812 -1.52587890625e-05 155.9997100830078 -1.52587890625e-05 Z" stroke="none" fill="#707070"/>
    </g>
    <text id="All_about_this_portfolio" data-name="All about this portfolio" transform="translate(35 175)" fill="#fff" font-size="18" font-family="SegoeUI-Light, Segoe UI" font-weight="300" opacity="0.45"><tspan x="0" y="0">All about this portfolio</tspan></text>
    <text id="Welcome_" data-name="Welcome!" transform="translate(35 143)" fill="#fff" font-size="51" font-family="SegoeUI-Bold, Segoe UI" font-weight="700"><tspan x="0" y="0">Welcome!</tspan></text>
  </g>
</svg>
